<svg width="24" height="32" xmlns="http://www.w3.org/2000/svg">
 <title>file_type_cucumber</title>

 <g>
  <title>Layer 1</title>
  <path stroke-width="2" stroke="#BBBBBB" id="svg_1" fill="none" d="m11.93985,4.96335a10.19115,9.84927 0 0 0 -1.93952,19.51429l0,2.81966c6.08349,-0.88857 11.47206,-5.56913 11.87152,-11.71256a10.5642,10.20981 0 0 0 -4.86943,-9.30608c-0.18405,-0.10529 -0.37057,-0.20898 -0.56287,-0.30071s-0.39698,-0.18426 -0.60166,-0.26322c-0.0652,-0.02632 -0.12875,-0.05025 -0.19395,-0.07498c-0.17827,-0.06381 -0.35902,-0.1356 -0.54307,-0.18824a10.0591,9.72165 0 0 0 -3.16101,-0.48816z"/>
  <path stroke="#BBBBBB" id="svg_2" fill="#fff" d="m14.16277,8.86086a1.01715,1.05409 0 0 0 -0.89086,0.36991a4.15407,4.30491 0 0 0 -0.39174,0.70534a2.19312,2.27276 0 0 0 0.28511,2.36915a2.50848,2.59956 0 0 0 1.81651,-1.5345a1.80592,1.8715 0 0 0 0.17923,-0.78371a1.06707,1.10581 0 0 0 -0.99825,-1.12619zm-4.15029,0.05564a1.08975,1.12932 0 0 0 -1.01489,1.07055a1.80592,1.8715 0 0 0 0.17772,0.78371a2.59166,2.68577 0 0 0 1.8702,1.53607a2.37538,2.46163 0 0 0 -0.16032,-3.01728a0.99976,1.03606 0 0 0 -0.87271,-0.36991l0,-0.00313zm-2.79812,2.85035a0.98312,1.01882 0 0 0 -0.55206,1.83231a4.28263,4.43814 0 0 0 0.67684,0.42555a2.56066,2.65364 0 0 0 2.40411,-0.2406a2.64082,2.73671 0 0 0 -1.54955,-1.83231a2.03431,2.10818 0 0 0 -0.80162,-0.18496a1.0353,1.0729 0 0 0 -0.17847,0l0.00076,0zm8.7808,3.59095a2.60149,2.69596 0 0 0 -1.47847,0.44436a2.64082,2.73671 0 0 0 1.55182,1.83231a2.03431,2.10818 0 0 0 0.80162,0.18496a1.00505,1.04155 0 0 0 0.73054,-1.85112a4.13668,4.28689 0 0 0 -0.67684,-0.40753a2.45554,2.5447 0 0 0 -0.9264,-0.20376l-0.00227,0.00078zm-7.78331,0.05564a2.45554,2.5447 0 0 0 -0.9264,0.20376a1.94734,2.01805 0 0 0 -0.67684,0.42555a1.01337,1.05017 0 0 0 0.78574,1.83231a1.83466,1.90128 0 0 0 0.80162,-0.18496a2.40865,2.49611 0 0 0 1.47847,-1.83231a2.54553,2.63796 0 0 0 -1.46032,-0.44436l-0.00227,0zm2.88509,1.8135a2.50848,2.59956 0 0 0 -1.815,1.53607a1.72878,1.79156 0 0 0 -0.17847,0.75863a1.05875,1.09719 0 0 0 1.83466,0.77744a4.15332,4.30413 0 0 0 0.39174,-0.70534a2.35118,2.43655 0 0 0 -0.23141,-2.36915l-0.00151,0.00235zm2.1175,0.05564a2.37538,2.46163 0 0 0 0.16032,3.01728a1.11169,1.15205 0 0 0 1.89062,-0.70534a1.80592,1.8715 0 0 0 -0.17847,-0.77744a2.59166,2.68577 0 0 0 -1.8702,-1.53607l-0.00227,0.00157z"/>
 </g>
</svg>